<svg version="1.1" id="Layer_1" xmlns="http://www.w3.org/2000/svg" xmlns:xlink="http://www.w3.org/1999/xlink" x="0px" y="0px"
	 width="100%" viewBox="0 0 621 94" enable-background="new 0 0 621 94" xml:space="preserve">
<path fill="#FDFDFD" opacity="1.000000" stroke="none" 
	d="
M1.000000,37.000000 
	C1.000000,25.003778 1.000000,13.007556 1.000000,1.008500 
	C207.931046,1.005667 414.862091,1.005667 621.896606,1.005667 
	C621.896606,32.254219 621.896606,63.508892 621.896606,94.881783 
	C415.000061,94.881783 208.000031,94.881783 1.000000,94.881783 
	C1.000000,88.600769 1.000000,82.269424 1.426136,75.257370 
	C8.284491,74.576645 14.716708,74.576645 21.645977,74.576645 
	C22.268991,61.993011 22.859388,50.068226 23.449783,38.143440 
	C23.846870,38.106590 24.243958,38.069744 24.641043,38.032894 
	C27.142559,50.190777 29.644075,62.348660 32.146969,74.513229 
	C39.571476,74.513229 46.394753,74.434425 53.214485,74.555397 
	C55.645134,74.598526 56.730949,73.914185 57.101517,71.319702 
	C57.875626,65.899780 59.046024,60.535198 60.098030,55.156567 
	C61.404346,48.477692 62.755577,41.807610 64.087402,35.133728 
	C64.747681,35.185261 65.407959,35.236790 66.068237,35.288319 
	C66.068237,48.311096 66.068237,61.333870 66.068237,74.173920 
	C74.759041,74.173920 82.181351,74.173920 90.233788,74.173920 
	C87.978745,52.186272 85.764915,30.600388 83.567772,9.177263 
	C72.163399,9.177263 61.425964,9.177263 50.740860,9.177263 
	C48.642578,21.820139 46.600948,34.121662 44.559315,46.423183 
	C44.169044,46.337265 43.778774,46.251343 43.388500,46.165421 
	C41.079800,33.786720 38.771099,21.408016 36.473492,9.088786 
	C25.663746,9.088786 15.406107,9.088786 5.002976,9.088786 
	C4.620916,12.963382 4.410087,16.617271 3.870647,20.221983 
	C3.031086,25.832211 1.968223,31.409025 1.000000,37.000000 
M386.847931,41.041416 
	C389.294800,41.041416 391.741669,41.041416 394.496674,41.041416 
	C394.496674,47.109734 394.400085,52.589226 394.517181,58.064156 
	C394.747192,68.822037 399.644958,74.652382 410.215179,75.658257 
	C415.716156,76.181740 421.348328,75.326660 427.010254,75.090584 
	C427.010254,69.778931 427.010254,65.381805 427.010254,61.045292 
	C415.131042,58.768696 411.908447,53.303032 414.870636,40.807190 
	C419.617859,40.807190 424.382965,40.807190 429.197937,40.807190 
	C429.197937,35.450901 429.197937,30.368719 429.197937,24.758282 
	C424.174042,24.758282 419.455811,24.758282 414.318481,24.758282 
	C417.064850,21.376379 419.380096,18.525328 422.038879,15.251289 
	C413.190735,15.251289 405.254425,15.251289 397.274689,15.251289 
	C395.791016,20.150505 393.146179,23.610815 387.896271,24.676081 
	C386.936554,24.870813 385.702118,26.578663 385.617554,27.667519 
	C385.387848,30.624340 385.707184,33.623814 385.175873,37.020874 
	C384.720245,36.484253 384.078186,36.019978 383.837555,35.399914 
	C381.166779,28.517981 376.186981,24.727938 368.846649,24.021349 
	C361.339020,23.298658 356.103271,26.759720 352.308716,32.941952 
	C351.781433,33.801029 351.040436,34.528923 350.098450,35.685963 
	C349.219147,31.785454 348.471893,28.470642 347.778564,25.395203 
	C341.408356,25.395203 335.626038,25.395203 329.665161,25.395203 
	C329.665161,41.822506 329.665161,58.009083 329.665161,74.218872 
	C336.808167,74.218872 343.566376,74.218872 350.851349,74.218872 
	C350.851349,67.785484 350.666229,61.645821 350.926086,55.525047 
	C351.064941,52.254818 351.406982,48.757225 352.740662,45.861134 
	C353.556488,44.089584 356.454620,42.246941 358.367188,42.298695 
	C360.299561,42.350983 362.651215,44.362148 363.914490,46.153275 
	C364.921661,47.581276 364.761780,49.966625 364.784424,51.930882 
	C364.870026,59.356415 364.818817,66.783524 364.818817,74.228996 
	C371.957794,74.228996 378.376434,74.228996 384.718384,74.228996 
	C384.718384,64.774223 384.645691,55.617821 384.776764,46.464336 
	C384.804565,44.520748 385.575409,42.587803 386.847931,41.041416 
M154.005463,47.071430 
	C153.666367,38.416939 149.092285,32.354504 141.850922,28.324955 
	C132.891296,23.339247 123.177826,22.614998 113.280197,24.690283 
	C100.143684,27.444681 92.819885,35.927021 92.135719,48.806183 
	C91.511421,60.558411 98.270500,71.068504 110.366608,74.240112 
	C117.047516,75.991844 124.599731,76.002960 131.499664,75.004852 
	C145.521545,72.976509 151.541534,66.255371 154.036911,52.318520 
	C154.134933,51.770969 154.688858,51.305046 155.277664,51.608849 
	C155.472672,53.430725 155.585770,55.265755 155.875793,57.072380 
	C157.992798,70.259659 169.673523,78.383606 182.448837,74.806305 
	C186.939774,73.548767 190.835419,70.165344 194.854904,67.838280 
	C194.970657,69.363678 195.151718,71.749817 195.338791,74.215195 
	C202.123734,74.215195 208.538864,74.215195 215.005188,74.215195 
	C215.005188,50.697155 215.005188,27.477165 215.005188,4.295568 
	C208.286392,4.295568 201.877686,4.295568 194.970703,4.295568 
	C194.970703,13.927580 194.970703,23.270891 194.970703,33.331936 
	C188.738556,25.397417 180.917572,22.801168 172.325851,24.395498 
	C163.853790,25.967628 159.372192,32.487049 156.899780,40.456001 
	C156.116043,42.982067 155.006729,45.407120 154.005463,47.071430 
M552.996521,49.499992 
	C552.996521,57.743473 552.996521,65.986954 552.996521,74.245728 
	C560.565308,74.245728 567.494324,74.245728 574.534973,74.245728 
	C574.534973,68.033417 574.294800,62.074429 574.622375,56.146824 
	C574.828735,52.414459 575.331848,48.486954 576.801025,45.127705 
	C577.505310,43.517300 580.805237,42.170692 582.845093,42.280048 
	C584.609436,42.374630 586.865417,44.373566 587.787842,46.120205 
	C588.800415,48.037338 588.750977,50.625866 588.786865,52.927734 
	C588.897095,60.011574 588.827026,67.098221 588.827026,74.175674 
	C595.595764,74.175674 601.999023,74.175674 608.127991,74.175674 
	C608.127991,61.728153 608.673645,49.588951 607.926331,37.529881 
	C607.467651,30.129492 601.778992,25.864408 594.776611,24.323214 
	C588.123169,22.858809 582.258423,24.791777 577.894104,30.349272 
	C577.249146,31.170530 576.551331,31.950262 574.939331,33.862919 
	C574.939331,23.094551 574.939331,13.720153 574.939331,4.301271 
	C567.275574,4.301271 560.226746,4.301271 552.996521,4.301271 
	C552.996521,19.236900 552.996521,33.868450 552.996521,49.499992 
M223.274261,66.165916 
	C233.206436,77.367912 246.106766,77.432449 259.151703,74.869362 
	C266.639160,73.398216 274.132935,70.579567 277.508911,61.672760 
	C269.986847,59.459000 264.427734,52.809452 255.328644,59.116669 
	C247.976746,64.212814 239.731705,59.799122 238.459503,51.882576 
	C251.754913,51.882576 264.989899,51.882576 278.280487,51.882576 
	C279.300385,43.551750 277.164490,36.581856 271.144592,31.278929 
	C260.881897,22.238510 239.383667,21.524565 227.882492,29.045963 
	C217.163361,36.055927 214.338882,54.539074 223.274261,66.165916 
M478.219177,28.159260 
	C470.458679,23.971130 462.133331,23.031179 453.531799,24.063463 
	C439.797363,25.711761 430.654663,34.917950 430.007812,47.581444 
	C429.283539,61.761242 436.169281,71.799179 449.018646,74.675690 
	C457.756439,76.631775 466.755646,76.767097 475.135010,73.669807 
	C479.876495,71.917198 483.879028,68.040916 487.993378,64.837296 
	C488.688141,64.296318 488.700348,61.335018 488.283203,61.147339 
	C483.903961,59.177143 479.463440,57.183483 474.832733,56.022659 
	C473.310791,55.641144 471.276520,58.042709 469.319977,58.496021 
	C465.664856,59.342876 461.893127,60.156189 458.173798,60.138996 
	C453.356873,60.116730 451.200317,56.739014 449.904938,51.855576 
	C463.801514,51.855576 477.037476,51.855576 490.275024,51.855576 
	C491.541992,41.280323 487.777466,33.633904 478.219177,28.159260 
M522.427551,39.938278 
	C524.885193,40.808578 527.339539,41.688484 529.801880,42.545315 
	C531.125671,43.005978 532.628540,44.057255 533.766418,43.758720 
	C539.202026,42.332619 544.540344,40.535473 550.147766,38.797577 
	C547.738770,33.163685 543.773743,29.485313 538.682434,27.142366 
	C528.671448,22.535435 518.296326,22.756205 508.016418,25.969185 
	C497.913452,29.126890 491.954926,37.658661 491.929016,48.092651 
	C491.894653,61.909683 496.952667,70.388351 508.002411,73.888069 
	C517.793701,76.989174 527.743835,76.728645 537.380981,73.096092 
	C543.075745,70.949562 547.652344,67.306946 549.881165,60.699059 
	C546.884033,59.804226 544.237854,58.942009 541.552368,58.227985 
	C536.524292,56.891113 531.828430,55.140240 526.568115,58.900013 
	C523.227112,61.288006 518.525391,60.686367 514.997070,57.485767 
	C511.682190,54.478848 510.798676,50.724403 512.143616,46.576885 
	C513.594360,42.103210 516.908875,39.969677 522.427551,39.938278 
M281.061218,56.499046 
	C281.061218,62.408794 281.061218,68.318542 281.061218,74.196960 
	C288.505341,74.196960 295.243591,74.196960 302.848724,74.196960 
	C302.848724,67.073647 302.650513,60.263546 302.900543,53.469944 
	C303.192200,45.545456 305.986359,43.206795 313.970367,43.819794 
	C316.907043,44.045265 319.813873,44.659298 323.440735,45.201752 
	C324.254272,38.427063 325.029877,31.968170 325.799194,25.561579 
	C315.161407,23.573521 307.183929,26.296349 301.893799,36.606651 
	C300.759094,32.058395 299.930267,28.736216 299.098969,25.404097 
	C293.053650,25.404097 287.298553,25.404097 281.061218,25.404097 
	C281.061218,35.594234 281.061218,45.546791 281.061218,56.499046 
z"/>
<path fill="#040404" opacity="1.000000" stroke="none" 
	d="
M1.000000,37.468658 
	C1.968223,31.409025 3.031086,25.832211 3.870647,20.221983 
	C4.410087,16.617271 4.620916,12.963382 5.002976,9.088786 
	C15.406107,9.088786 25.663746,9.088786 36.473492,9.088786 
	C38.771099,21.408016 41.079800,33.786720 43.388500,46.165421 
	C43.778774,46.251343 44.169044,46.337265 44.559315,46.423183 
	C46.600948,34.121662 48.642578,21.820139 50.740860,9.177263 
	C61.425964,9.177263 72.163399,9.177263 83.567772,9.177263 
	C85.764915,30.600388 87.978745,52.186272 90.233788,74.173920 
	C82.181351,74.173920 74.759041,74.173920 66.068237,74.173920 
	C66.068237,61.333870 66.068237,48.311096 66.068237,35.288319 
	C65.407959,35.236790 64.747681,35.185261 64.087402,35.133728 
	C62.755577,41.807610 61.404346,48.477692 60.098030,55.156567 
	C59.046024,60.535198 57.875626,65.899780 57.101517,71.319702 
	C56.730949,73.914185 55.645134,74.598526 53.214485,74.555397 
	C46.394753,74.434425 39.571476,74.513229 32.146969,74.513229 
	C29.644075,62.348660 27.142559,50.190777 24.641043,38.032894 
	C24.243958,38.069744 23.846870,38.106590 23.449783,38.143440 
	C22.859388,50.068226 22.268991,61.993011 21.645977,74.576645 
	C14.716708,74.576645 8.284491,74.576645 1.426136,74.788322 
	C1.000000,62.645771 1.000000,50.291546 1.000000,37.468658 
z"/>
<path fill="#040403" opacity="1.000000" stroke="none" 
	d="
M154.046387,47.878403 
	C155.006729,45.407120 156.116043,42.982067 156.899780,40.456001 
	C159.372192,32.487049 163.853790,25.967628 172.325851,24.395498 
	C180.917572,22.801168 188.738556,25.397417 194.970703,33.331936 
	C194.970703,23.270891 194.970703,13.927580 194.970703,4.295568 
	C201.877686,4.295568 208.286392,4.295568 215.005188,4.295568 
	C215.005188,27.477165 215.005188,50.697155 215.005188,74.215195 
	C208.538864,74.215195 202.123734,74.215195 195.338791,74.215195 
	C195.151718,71.749817 194.970657,69.363678 194.854904,67.838280 
	C190.835419,70.165344 186.939774,73.548767 182.448837,74.806305 
	C169.673523,78.383606 157.992798,70.259659 155.875793,57.072380 
	C155.585770,55.265755 155.472672,53.430725 154.993469,50.932739 
	C154.488312,49.463890 154.267349,48.671150 154.046387,47.878403 
M176.092453,52.072147 
	C178.677475,60.327843 186.600342,63.238609 192.443375,58.079281 
	C195.989227,54.948357 197.039139,49.494530 194.899445,45.321159 
	C192.916702,41.453918 188.083633,39.394054 183.382797,40.412735 
	C178.489700,41.473083 176.125488,44.960018 176.092453,52.072147 
z"/>
<path fill="#040404" opacity="1.000000" stroke="none" 
	d="
M552.996521,48.999996 
	C552.996521,33.868450 552.996521,19.236900 552.996521,4.301271 
	C560.226746,4.301271 567.275574,4.301271 574.939331,4.301271 
	C574.939331,13.720153 574.939331,23.094551 574.939331,33.862919 
	C576.551331,31.950262 577.249146,31.170530 577.894104,30.349272 
	C582.258423,24.791777 588.123169,22.858809 594.776611,24.323214 
	C601.778992,25.864408 607.467651,30.129492 607.926331,37.529881 
	C608.673645,49.588951 608.127991,61.728153 608.127991,74.175674 
	C601.999023,74.175674 595.595764,74.175674 588.827026,74.175674 
	C588.827026,67.098221 588.897095,60.011574 588.786865,52.927734 
	C588.750977,50.625866 588.800415,48.037338 587.787842,46.120205 
	C586.865417,44.373566 584.609436,42.374630 582.845093,42.280048 
	C580.805237,42.170692 577.505310,43.517300 576.801025,45.127705 
	C575.331848,48.486954 574.828735,52.414459 574.622375,56.146824 
	C574.294800,62.074429 574.534973,68.033417 574.534973,74.245728 
	C567.494324,74.245728 560.565308,74.245728 552.996521,74.245728 
	C552.996521,65.986954 552.996521,57.743473 552.996521,48.999996 
z"/>
<path fill="#080808" opacity="1.000000" stroke="none" 
	d="
M386.003937,40.649952 
	C385.575409,42.587803 384.804565,44.520748 384.776764,46.464336 
	C384.645691,55.617821 384.718384,64.774223 384.718384,74.228996 
	C378.376434,74.228996 371.957794,74.228996 364.818817,74.228996 
	C364.818817,66.783524 364.870026,59.356415 364.784424,51.930882 
	C364.761780,49.966625 364.921661,47.581276 363.914490,46.153275 
	C362.651215,44.362148 360.299561,42.350983 358.367188,42.298695 
	C356.454620,42.246941 353.556488,44.089584 352.740662,45.861134 
	C351.406982,48.757225 351.064941,52.254818 350.926086,55.525047 
	C350.666229,61.645821 350.851349,67.785484 350.851349,74.218872 
	C343.566376,74.218872 336.808167,74.218872 329.665161,74.218872 
	C329.665161,58.009083 329.665161,41.822506 329.665161,25.395203 
	C335.626038,25.395203 341.408356,25.395203 347.778564,25.395203 
	C348.471893,28.470642 349.219147,31.785454 350.098450,35.685963 
	C351.040436,34.528923 351.781433,33.801029 352.308716,32.941952 
	C356.103271,26.759720 361.339020,23.298658 368.846649,24.021349 
	C376.186981,24.727938 381.166779,28.517981 383.837555,35.399914 
	C384.078186,36.019978 384.720245,36.484253 385.558594,37.214199 
	C385.962219,38.488335 385.983093,39.569141 386.003937,40.649952 
z"/>
<path fill="#040403" opacity="1.000000" stroke="none" 
	d="
M223.064392,65.866905 
	C214.338882,54.539074 217.163361,36.055927 227.882492,29.045963 
	C239.383667,21.524565 260.881897,22.238510 271.144592,31.278929 
	C277.164490,36.581856 279.300385,43.551750 278.280487,51.882576 
	C264.989899,51.882576 251.754913,51.882576 238.459503,51.882576 
	C239.731705,59.799122 247.976746,64.212814 255.328644,59.116669 
	C264.427734,52.809452 269.986847,59.459000 277.508911,61.672760 
	C274.132935,70.579567 266.639160,73.398216 259.151703,74.869362 
	C246.106766,77.432449 233.206436,77.367912 223.064392,65.866905 
M252.335999,44.162052 
	C254.425217,44.162052 256.514435,44.162052 259.095276,44.162052 
	C257.091888,38.714138 253.216293,37.663799 248.691788,37.740795 
	C244.382690,37.814121 240.909302,39.289288 238.155899,44.162132 
	C243.244247,44.162132 247.312088,44.162132 252.335999,44.162052 
z"/>
<path fill="#040404" opacity="1.000000" stroke="none" 
	d="
M478.529724,28.364262 
	C487.777466,33.633904 491.541992,41.280323 490.275024,51.855576 
	C477.037476,51.855576 463.801514,51.855576 449.904938,51.855576 
	C451.200317,56.739014 453.356873,60.116730 458.173798,60.138996 
	C461.893127,60.156189 465.664856,59.342876 469.319977,58.496021 
	C471.276520,58.042709 473.310791,55.641144 474.832733,56.022659 
	C479.463440,57.183483 483.903961,59.177143 488.283203,61.147339 
	C488.700348,61.335018 488.688141,64.296318 487.993378,64.837296 
	C483.879028,68.040916 479.876495,71.917198 475.135010,73.669807 
	C466.755646,76.767097 457.756439,76.631775 449.018646,74.675690 
	C436.169281,71.799179 429.283539,61.761242 430.007812,47.581444 
	C430.654663,34.917950 439.797363,25.711761 453.531799,24.063463 
	C462.133331,23.031179 470.458679,23.971130 478.529724,28.364262 
M460.569244,37.735359 
	C456.330048,37.976868 452.735565,39.220528 450.527191,43.815498 
	C457.722748,43.815498 464.194977,43.815498 471.033905,43.815498 
	C469.118042,39.088062 465.681763,37.756458 460.569244,37.735359 
z"/>
<path fill="#030202" opacity="1.000000" stroke="none" 
	d="
M154.025925,47.474918 
	C154.267349,48.671150 154.488312,49.463890 154.869812,50.528862 
	C154.688858,51.305046 154.134933,51.770969 154.036911,52.318520 
	C151.541534,66.255371 145.521545,72.976509 131.499664,75.004852 
	C124.599731,76.002960 117.047516,75.991844 110.366608,74.240112 
	C98.270500,71.068504 91.511421,60.558411 92.135719,48.806183 
	C92.819885,35.927021 100.143684,27.444681 113.280197,24.690283 
	C123.177826,22.614998 132.891296,23.339247 141.850922,28.324955 
	C149.092285,32.354504 153.666367,38.416939 154.025925,47.474918 
M112.169525,45.887672 
	C110.517578,53.003880 113.104942,58.678516 118.588860,59.966656 
	C126.298630,61.777641 132.906921,58.819618 134.618393,52.791470 
	C136.019363,47.856937 133.520355,42.185650 129.071594,40.203514 
	C123.058006,37.524166 116.337555,39.559273 112.169525,45.887672 
z"/>
<path fill="#040404" opacity="1.000000" stroke="none" 
	d="
M522.009460,39.937363 
	C516.908875,39.969677 513.594360,42.103210 512.143616,46.576885 
	C510.798676,50.724403 511.682190,54.478848 514.997070,57.485767 
	C518.525391,60.686367 523.227112,61.288006 526.568115,58.900013 
	C531.828430,55.140240 536.524292,56.891113 541.552368,58.227985 
	C544.237854,58.942009 546.884033,59.804226 549.881165,60.699059 
	C547.652344,67.306946 543.075745,70.949562 537.380981,73.096092 
	C527.743835,76.728645 517.793701,76.989174 508.002411,73.888069 
	C496.952667,70.388351 491.894653,61.909683 491.929016,48.092651 
	C491.954926,37.658661 497.913452,29.126890 508.016418,25.969185 
	C518.296326,22.756205 528.671448,22.535435 538.682434,27.142366 
	C543.773743,29.485313 547.738770,33.163685 550.147766,38.797577 
	C544.540344,40.535473 539.202026,42.332619 533.766418,43.758720 
	C532.628540,44.057255 531.125671,43.005978 529.801880,42.545315 
	C527.339539,41.688484 524.885193,40.808578 522.009460,39.937363 
z"/>
<path fill="#040404" opacity="1.000000" stroke="none" 
	d="
M386.425934,40.845684 
	C385.983093,39.569141 385.962219,38.488335 385.875122,37.006950 
	C385.707184,33.623814 385.387848,30.624340 385.617554,27.667519 
	C385.702118,26.578663 386.936554,24.870813 387.896271,24.676081 
	C393.146179,23.610815 395.791016,20.150505 397.274689,15.251289 
	C405.254425,15.251289 413.190735,15.251289 422.038879,15.251289 
	C419.380096,18.525328 417.064850,21.376379 414.318481,24.758282 
	C419.455811,24.758282 424.174042,24.758282 429.197937,24.758282 
	C429.197937,30.368719 429.197937,35.450901 429.197937,40.807190 
	C424.382965,40.807190 419.617859,40.807190 414.870636,40.807190 
	C411.908447,53.303032 415.131042,58.768696 427.010254,61.045292 
	C427.010254,65.381805 427.010254,69.778931 427.010254,75.090584 
	C421.348328,75.326660 415.716156,76.181740 410.215179,75.658257 
	C399.644958,74.652382 394.747192,68.822037 394.517181,58.064156 
	C394.400085,52.589226 394.496674,47.109734 394.496674,41.041416 
	C391.741669,41.041416 389.294800,41.041416 386.425934,40.845684 
z"/>
<path fill="#070707" opacity="1.000000" stroke="none" 
	d="
M281.061218,55.999199 
	C281.061218,45.546791 281.061218,35.594234 281.061218,25.404097 
	C287.298553,25.404097 293.053650,25.404097 299.098969,25.404097 
	C299.930267,28.736216 300.759094,32.058395 301.893799,36.606651 
	C307.183929,26.296349 315.161407,23.573521 325.799194,25.561579 
	C325.029877,31.968170 324.254272,38.427063 323.440735,45.201752 
	C319.813873,44.659298 316.907043,44.045265 313.970367,43.819794 
	C305.986359,43.206795 303.192200,45.545456 302.900543,53.469944 
	C302.650513,60.263546 302.848724,67.073647 302.848724,74.196960 
	C295.243591,74.196960 288.505341,74.196960 281.061218,74.196960 
	C281.061218,68.318542 281.061218,62.408794 281.061218,55.999199 
z"/>
<path fill="#F15D36" opacity="1.000000" stroke="none" 
	d="
M176.062408,51.662968 
	C176.125488,44.960018 178.489700,41.473083 183.382797,40.412735 
	C188.083633,39.394054 192.916702,41.453918 194.899445,45.321159 
	C197.039139,49.494530 195.989227,54.948357 192.443375,58.079281 
	C186.600342,63.238609 178.677475,60.327843 176.062408,51.662968 
z"/>
<path fill="#F15E37" opacity="1.000000" stroke="none" 
	d="
M251.857971,44.162094 
	C247.312088,44.162132 243.244247,44.162132 238.155899,44.162132 
	C240.909302,39.289288 244.382690,37.814121 248.691788,37.740795 
	C253.216293,37.663799 257.091888,38.714138 259.095276,44.162052 
	C256.514435,44.162052 254.425217,44.162052 251.857971,44.162094 
z"/>
<path fill="#F15E37" opacity="1.000000" stroke="none" 
	d="
M460.999268,37.737614 
	C465.681763,37.756458 469.118042,39.088062 471.033905,43.815498 
	C464.194977,43.815498 457.722748,43.815498 450.527191,43.815498 
	C452.735565,39.220528 456.330048,37.976868 460.999268,37.737614 
z"/>
<path fill="#F05D36" opacity="1.000000" stroke="none" 
	d="
M112.346481,45.551163 
	C116.337555,39.559273 123.058006,37.524166 129.071594,40.203514 
	C133.520355,42.185650 136.019363,47.856937 134.618393,52.791470 
	C132.906921,58.819618 126.298630,61.777641 118.588860,59.966656 
	C113.104942,58.678516 110.517578,53.003880 112.346481,45.551163 
z"/>
</svg>