<?xml version="1.0" encoding="UTF-8"?>
<svg version="1.1" xmlns="http://www.w3.org/2000/svg" width="2000" height="1500">
<path d="M0 0 C660 0 1320 0 2000 0 C2000 495 2000 990 2000 1500 C1340 1500 680 1500 0 1500 C0 1005 0 510 0 0 Z " fill="#F75D34" transform="translate(0,0)"/>
<path d="M0 0 C7.8210799 4.5018899 13.31771642 9.96174381 18.125 17.57421875 C20.16829391 19.56675554 20.16829391 19.56675554 22.32006836 19.44189453 C23.86739768 19.25794983 25.41033821 19.03433161 26.94750977 18.77905273 C40.28780441 16.62576599 54.17790064 17.58617035 65.36328125 25.58984375 C72.17341075 31.57806107 76.00882944 39.87361212 76.6484375 48.828125 C76.794238 57.18163591 75.95118036 65.1822758 74.40234375 73.3828125 C75.418125 73.90488281 76.43390625 74.42695312 77.48046875 74.96484375 C91.8919926 82.58176107 103.52912505 91.19976575 109.77734375 106.8203125 C111.57160669 117.04761125 110.48116587 125.16380841 104.7421875 133.9140625 C98.27374082 142.52094843 89.98794664 149.48350435 80.40234375 154.3828125 C80.56089844 154.99898437 80.71945312 155.61515625 80.8828125 156.25 C82.93805874 168.64328934 83.13804256 183.00433601 75.859375 193.63671875 C70.72565285 200.01569158 64.34625585 204.34035046 56.40234375 206.3828125 C52.77358479 206.66694598 49.16550945 206.66203471 45.52734375 206.6328125 C44.57214844 206.64054688 43.61695313 206.64828125 42.6328125 206.65625 C36.84961985 206.6403839 31.96490396 205.92321379 26.40234375 204.3828125 C25.08234375 204.3828125 23.76234375 204.3828125 22.40234375 204.3828125 C20.42389663 206.54620463 20.42389663 206.54620463 18.65234375 209.3828125 C11.78232482 219.24420498 4.93873561 225.53734855 -6.59765625 229.3828125 C-18.89323252 230.3581443 -27.81026344 228.38006455 -37.36328125 220.50390625 C-43.53217265 214.64777333 -48.72735577 207.95513953 -52.59765625 200.3828125 C-53.85578125 200.5478125 -55.11390625 200.7128125 -56.41015625 200.8828125 C-71.02173821 202.27935457 -84.4441954 203.40085436 -96.41015625 193.7578125 C-101.62593747 188.83743836 -106.29769899 181.52283488 -106.72705078 174.16552734 C-106.72817871 173.31684082 -106.72930664 172.4681543 -106.73046875 171.59375 C-106.73175781 170.65144531 -106.73304688 169.70914063 -106.734375 168.73828125 C-106.73050781 167.75472656 -106.72664063 166.77117187 -106.72265625 165.7578125 C-106.72652344 164.79746094 -106.73039062 163.83710937 -106.734375 162.84765625 C-106.72818067 158.28243323 -106.57005423 153.98374616 -105.80078125 149.48046875 C-105.37572175 146.05242132 -105.39883377 145.66481581 -107.51171875 142.66796875 C-108.40632813 141.93449219 -109.3009375 141.20101562 -110.22265625 140.4453125 C-116.45381567 134.85212593 -121.15555372 127.95620341 -121.8359375 119.37890625 C-122.09438792 106.9868888 -119.18836383 98.42651408 -110.59765625 89.3828125 C-101.68947595 81.3828125 -101.68947595 81.3828125 -98.59765625 81.3828125 C-98.81421875 80.83238281 -99.03078125 80.28195312 -99.25390625 79.71484375 C-103.03428636 68.42620869 -103.83815091 53.83054494 -99.59765625 42.5703125 C-95.08140668 33.62711772 -87.84741209 27.51463105 -78.4140625 24.296875 C-74.1833935 23.28359297 -70.42197826 23.08639759 -66.09765625 23.1328125 C-65.01677734 23.12121094 -65.01677734 23.12121094 -63.9140625 23.109375 C-59.11880001 23.12671772 -55.14983566 23.87340564 -50.59765625 25.3828125 C-50.33339844 24.64804687 -50.06914062 23.91328125 -49.796875 23.15625 C-47.84144046 18.63390954 -44.7430447 15.13656826 -41.59765625 11.3828125 C-41.09492188 10.75890625 -40.5921875 10.135 -40.07421875 9.4921875 C-29.91588718 -1.95527244 -14.13943998 -6.55410022 0 0 Z " fill="#FEF3EF" transform="translate(403.59765625,639.6171875)"/>
<path d="M0 0 C19.47 0 38.94 0 59 0 C61.32358591 11.03703309 63.62740528 22.00863051 65.578125 33.10546875 C65.79442566 34.32156326 66.01072632 35.53765778 66.23358154 36.79060364 C66.9085428 40.58907503 67.5793612 44.38826335 68.25 48.1875 C68.7132644 50.79887733 69.17680418 53.41020582 69.640625 56.02148438 C70.76358622 62.34709777 71.88316857 68.67330163 73 75 C75.98911277 66.35715827 77.28526457 57.53709763 78.5 48.5 C79.31235634 42.45642595 80.27591435 36.49886716 81.50927734 30.52685547 C82.3599439 26.14655753 82.95502391 21.73196893 83.5625 17.3125 C83.68818359 16.41466797 83.81386719 15.51683594 83.94335938 14.59179688 C84.17785398 12.91595848 84.41118129 11.23995592 84.64282227 9.5637207 C85.08712024 6.37467558 85.54464499 3.1874851 86 0 C106.46 0 126.92 0 148 0 C150.02464872 18.57091582 152.04292794 37.13594238 153.8503418 55.72900391 C154.51369074 62.4505207 155.23932142 69.16077833 156.0390625 75.8671875 C157.95179018 91.93858966 159.54045909 107.80118285 160 124 C145.48 124 130.96 124 116 124 C115.86722656 119.36066406 115.73445312 114.72132813 115.59765625 109.94140625 C115.51134562 106.96548615 115.42488385 103.98957191 115.33789062 101.01367188 C115.20045703 96.31180792 115.06352032 91.60993395 114.92993164 86.90795898 C114.82194256 83.10827443 114.71140109 79.30867124 114.59924126 75.50910759 C114.5573159 74.07460993 114.51624173 72.64008708 114.4761219 71.2055378 C114.1839696 60.78841627 113.66110968 50.39969978 113 40 C112.64603149 41.89830566 112.64603149 41.89830566 112.28491211 43.83496094 C107.29575338 70.57815059 102.22827609 97.30241996 97 124 C81.82 124 66.64 124 51 124 C47.58629467 107.01169098 47.58629467 107.01169098 46.12109375 99.703125 C45.12596007 94.73935707 44.13042437 89.77567241 43.13232422 84.8125 C42.32659341 80.80576687 41.5228078 76.79864778 40.72030258 72.7912674 C40.41562322 71.2715321 40.11027329 69.75193106 39.80420303 68.23247528 C38.0481038 59.51195556 36.38764409 50.78845625 35 42 C34.96907761 42.96575455 34.96907761 42.96575455 34.93753052 43.95101929 C34.71707296 50.80010654 34.48836626 57.64888667 34.25537109 64.49755859 C34.17002441 67.03590316 34.08661569 69.5743138 34.00537109 72.11279297 C33.4483648 89.46250753 32.44269408 106.69979454 31 124 C16.81 124 2.62 124 -12 124 C-12 108.36153846 -12 108.36153846 -11.125 102.90625 C-10.25428348 96.97679313 -9.56580951 91.06005939 -9 85.09375 C-8.91766113 84.23136719 -8.83532227 83.36898437 -8.75048828 82.48046875 C-8.49816607 79.82051066 -8.24859973 77.16030842 -8 74.5 C-7.00179998 63.81809003 -5.94895383 53.17520989 -4.47314453 42.54736328 C-3.65879654 36.44185437 -3.05325092 30.31568774 -2.4375 24.1875 C-2.24897461 22.33995117 -2.24897461 22.33995117 -2.05664062 20.45507812 C-1.36216712 13.63760259 -0.6818753 6.81875298 0 0 Z " fill="#FEFDFD" transform="translate(592,691)"/>
<path d="M0 0 C12.54 0 25.08 0 38 0 C38 43.89 38 87.78 38 133 C25.46 133 12.92 133 0 133 C-0.33 127.39 -0.66 121.78 -1 116 C-1.804375 117.36125 -2.60875 118.7225 -3.4375 120.125 C-8.46774153 127.6526085 -15.51759118 131.35793824 -24 134 C-34.17731077 136.00440795 -44.89950829 136.56806401 -54 131 C-64.50231882 123.18577468 -72.25773621 112.74292251 -74.59375 99.6796875 C-76.58063029 81.68313716 -74.2353706 64.98102132 -62.9765625 50.375 C-56.74759994 43.87521298 -49.05118696 38.51628697 -39.88671875 37.734375 C-26.67006144 37.79892522 -15.92245061 40.089572 -5.82421875 49.0234375 C-4 51 -4 51 0 57 C0 38.19 0 19.38 0 0 Z " fill="#FEFDFD" transform="translate(951,682)"/>
<path d="M0 0 C13.53 0 27.06 0 41 0 C41.33 18.81 41.66 37.62 42 57 C43.98 54.03 45.96 51.06 48 48 C54.93490182 40.93173469 62.05534499 37.82393013 72 37.5 C82.42355174 37.8722697 89.26098209 41.25720387 96.796875 48.42578125 C103.06435218 55.74895051 105.13156556 64.19121468 105.11352539 73.6262207 C105.11367142 74.27068649 105.11381744 74.91515228 105.1139679 75.57914734 C105.11327506 77.69472704 105.10551231 79.81021706 105.09765625 81.92578125 C105.09578983 83.39837089 105.09436699 84.87096115 105.09336853 86.34355164 C105.08956096 90.20852388 105.07974579 94.0734582 105.06866455 97.93841553 C105.05660816 102.58155789 105.0520398 107.22471296 105.04621124 111.86786652 C105.03653303 118.91193734 105.01736419 125.95592505 105 133 C92.46 133 79.92 133 67 133 C67.04640625 129.41125 67.0928125 125.8225 67.140625 122.125 C67.17185695 118.63331515 67.19612413 115.14164612 67.21972656 111.64990234 C67.23979065 109.2308857 67.26704843 106.81191724 67.30175781 104.39306641 C67.35050341 100.90775632 67.37302164 97.42308984 67.390625 93.9375 C67.42159271 92.32609131 67.42159271 92.32609131 67.45318604 90.68212891 C67.455054 84.37289859 66.90406774 79.16028117 63 74 C58.73273185 71.15515457 55.0051174 71.39040237 50 72 C45.06155652 74.36186427 43.72687037 78.30463937 41.84240723 83.168396 C40.44366965 87.8700068 40.50639677 92.38724357 40.609375 97.2578125 C40.61786469 98.80140945 40.61786469 98.80140945 40.62652588 100.37619019 C40.64871297 103.62628974 40.69887585 106.87524011 40.75 110.125 C40.77008784 112.34373395 40.78833458 114.56248538 40.8046875 116.78125 C40.84509884 122.18828663 40.92342387 127.59287447 41 133 C27.47 133 13.94 133 0 133 C0 89.11 0 45.22 0 0 Z " fill="#FEFDFD" transform="translate(1626,682)"/>
<path d="M0 0 C8.40480587 7.09155495 14.48790948 15.96288359 16.25 26.96484375 C16.78587668 35.39426898 16.91558633 43.86084853 14.25 51.96484375 C13.88261719 53.15787109 13.88261719 53.15787109 13.5078125 54.375 C9.3669213 66.22967526 1.46848365 73.76792251 -9.49609375 79.3671875 C-25.34112874 86.62686488 -49.30081988 88.34463659 -66.0234375 83.06640625 C-79.66839393 77.55368746 -89.15740419 71.80888146 -95.49609375 57.95703125 C-95.90988281 56.96960938 -96.32367187 55.9821875 -96.75 54.96484375 C-97.09160156 54.16304687 -97.43320312 53.36125 -97.78515625 52.53515625 C-102.12721099 40.53896781 -100.58577147 26.15565303 -95.75390625 14.578125 C-89.82649595 2.82585475 -80.90621856 -4.42373509 -68.75 -9.03515625 C-46.69199466 -16.0776209 -18.88533424 -13.97622037 0 0 Z " fill="#FEFDFD" transform="translate(856.75,732.03515625)"/>
<path d="M0 0 C0.99128906 0.3403125 1.98257812 0.680625 3.00390625 1.03125 C15.85138087 5.88802202 25.39423829 13.25387925 31.3125 25.77734375 C34.66983013 34.46210399 34 39.96337632 34 50 C8.59 50 -16.82 50 -43 50 C-39.39997416 58.68779895 -39.39997416 58.68779895 -33 64 C-24.65847233 66.78050922 -13.94140596 65.89091881 -6.0390625 62.23046875 C-4.03648855 61.02201895 -2.45360823 59.71940257 -0.75 58.125 C0.1575 57.42375 1.065 56.7225 2 56 C4.43359375 56.58984375 4.43359375 56.58984375 8 58 C9.86047956 58.68673329 11.72117897 59.37287107 13.58203125 60.05859375 C15.65955754 60.84971787 17.73636243 61.64273862 19.8125 62.4375 C21.40481445 63.03014648 21.40481445 63.03014648 23.02929688 63.63476562 C24.54040039 64.21581055 24.54040039 64.21581055 26.08203125 64.80859375 C27.00218018 65.15720459 27.9223291 65.50581543 28.87036133 65.86499023 C31 67 31 67 32 70 C30.77302965 72.24944564 29.58690256 74.01869183 28 76 C27.33871094 76.84111328 27.33871094 76.84111328 26.6640625 77.69921875 C17.24293144 88.33983632 1.71943333 92.9666675 -12 94 C-31.04229053 95.00376955 -49.73346256 94.76341717 -65.27734375 82.15234375 C-74.44421434 73.56587093 -79.66807568 61.52614407 -80.23828125 48.99609375 C-80.61256918 33.68889217 -77.60642301 22.25719223 -66.93359375 10.77734375 C-50.69939159 -4.75986225 -20.65804536 -7.35035187 0 0 Z " fill="#FEFCFC" transform="translate(1474,723)"/>
<path d="M0 0 C8.84686968 7.26818799 12.76324822 15.79973233 15.3125 26.8125 C15.3125 31.4325 15.3125 36.0525 15.3125 40.8125 C-10.0975 40.8125 -35.5075 40.8125 -61.6875 40.8125 C-58.08747416 49.50029895 -58.08747416 49.50029895 -51.6875 54.8125 C-44.95267596 57.05744135 -34.73543033 56.95590971 -28.0625 54.5625 C-24.75059083 52.84521376 -21.73542178 50.95989944 -18.6875 48.8125 C-15.31841575 46.67625997 -15.31841575 46.67625997 -12.63208008 47.25634766 C-11.91431396 47.57651855 -11.19654785 47.89668945 -10.45703125 48.2265625 C-9.65330078 48.57589844 -8.84957031 48.92523437 -8.02148438 49.28515625 C-6.77334961 49.85556641 -6.77334961 49.85556641 -5.5 50.4375 C-4.68724609 50.79457031 -3.87449219 51.15164063 -3.03710938 51.51953125 C-0.5803054 52.60232314 1.86622229 53.70616277 4.3125 54.8125 C6.01637902 55.57154396 7.720779 56.32941996 9.42578125 57.0859375 C10.17255127 57.41770996 10.91932129 57.74948242 11.6887207 58.09130859 C12.22456787 58.32930176 12.76041504 58.56729492 13.3125 58.8125 C11.27228374 66.06775883 7.03897422 70.89892 0.6015625 74.8671875 C-3.39034743 77.07730072 -7.50498512 78.98896392 -11.6875 80.8125 C-12.9559375 81.36744141 -12.9559375 81.36744141 -14.25 81.93359375 C-32.08529972 88.36459125 -56.60172614 86.87745741 -73.75390625 79.4921875 C-85.63602146 73.57537911 -91.778918 64.81880999 -96.6875 52.8125 C-100.91726611 39.97280999 -99.44039014 24.91027197 -94.0625 12.625 C-88.20466481 2.12971194 -79.08018433 -5.31822783 -67.6875 -8.9375 C-66.03255328 -9.39852087 -64.36255688 -9.80595927 -62.6875 -10.1875 C-61.97287598 -10.35523926 -61.25825195 -10.52297852 -60.52197266 -10.69580078 C-39.64596122 -15.28975492 -17.58304289 -12.56774542 0 0 Z " fill="#FEFCFC" transform="translate(1092.6875,732.1875)"/>
<path d="M0 0 C6.43696458 5.2734005 9.81565608 11.49774949 12.41796875 19.3046875 C12.5360937 21.55808416 12.5949352 23.81473246 12.62329102 26.07104492 C12.63319061 26.75423294 12.64309021 27.43742096 12.65328979 28.14131165 C12.68485554 30.39755803 12.70964265 32.65382547 12.734375 34.91015625 C12.75494879 36.47529139 12.77594537 38.04042102 12.79734802 39.60554504 C12.85252484 43.72365866 12.90195346 47.84182206 12.95019531 51.96002197 C13.00927781 56.90186759 13.07548163 61.8436223 13.1404953 66.78539276 C13.23844961 74.29176878 13.32734333 81.79820329 13.41796875 89.3046875 C0.87796875 89.3046875 -11.66203125 89.3046875 -24.58203125 89.3046875 C-24.59621094 85.47617187 -24.61039063 81.64765625 -24.625 77.703125 C-24.65562534 73.98965671 -24.69471319 70.27636706 -24.73461914 66.56298828 C-24.75779673 63.98492768 -24.77219425 61.40677242 -24.77758789 58.82861328 C-24.7868785 55.11951727 -24.82787637 51.41190968 -24.875 47.703125 C-24.87106735 46.55290863 -24.8671347 45.40269226 -24.86308289 44.21762085 C-24.90165483 37.4226452 -24.90165483 37.4226452 -28.0012207 31.59228516 C-31.87211145 28.16117681 -34.29669131 27.93806583 -39.33203125 28.04296875 C-42.93229375 28.46174928 -44.26602338 29.52547806 -46.58203125 32.3046875 C-50.24825585 39.34054678 -51.18153473 45.71714883 -51.19140625 53.5625 C-51.2079425 54.59156464 -51.22447876 55.62062927 -51.24151611 56.68087769 C-51.28965382 59.93054373 -51.31129103 63.17974303 -51.33203125 66.4296875 C-51.36021952 68.64846055 -51.39015089 70.86721219 -51.421875 73.0859375 C-51.49864832 78.49239518 -51.53948785 83.89742178 -51.58203125 89.3046875 C-64.78203125 89.3046875 -77.98203125 89.3046875 -91.58203125 89.3046875 C-91.58203125 58.6146875 -91.58203125 27.9246875 -91.58203125 -3.6953125 C-80.03203125 -3.6953125 -68.48203125 -3.6953125 -56.58203125 -3.6953125 C-55.26203125 3.2346875 -53.94203125 10.1646875 -52.58203125 17.3046875 C-50.57981469 14.63506542 -48.99893716 12.33609834 -47.39453125 9.4921875 C-43.39694008 3.03824513 -37.64773075 -1.8690327 -30.58203125 -4.6953125 C-19.93419701 -7.18098241 -9.26555102 -6.08358418 0 0 Z " fill="#FEFDFD" transform="translate(1295.58203125,725.6953125)"/>
<path d="M0 0 C1.13179688 -0.01224609 2.26359375 -0.02449219 3.4296875 -0.03710938 C13.86871962 -0.05544491 19.69688725 1.38549896 27.125 8.75 C27.77621826 9.38043213 28.42743652 10.01086426 29.09838867 10.66040039 C30.39488839 11.91862112 31.68661297 13.18178391 32.97314453 14.45019531 C34.50677859 15.94969243 36.07643864 17.41217955 37.65234375 18.8671875 C38.44769531 19.61226562 39.24304688 20.35734375 40.0625 21.125 C40.73925781 21.75277344 41.41601562 22.38054688 42.11328125 23.02734375 C46.28940579 28.5390308 46.01300366 35.03797908 45.875 41.625 C45.86597656 42.45193359 45.85695313 43.27886719 45.84765625 44.13085938 C45.82431512 46.14986708 45.78845288 48.16872356 45.75 50.1875 C39.94589469 50.59243758 34.90005876 49.12663635 29.375 47.5625 C28.4675 47.32660156 27.56 47.09070313 26.625 46.84765625 C19.21543236 44.76571721 12.44555846 41.60972535 8.5 34.6875 C6.43008243 29.92124244 5.12894326 24.89096236 3.765625 19.88671875 C2.22611809 14.27936089 0.47780947 8.73900417 -1.25 3.1875 C-1.44110352 3.89769287 -1.63220703 4.60788574 -1.82910156 5.33959961 C-2.7119327 8.60347202 -3.60588096 11.86420259 -4.5 15.125 C-4.80035156 16.24197266 -5.10070312 17.35894531 -5.41015625 18.50976562 C-10.87231676 38.32462451 -10.87231676 38.32462451 -19.25 43.1875 C-23.15246738 44.76411103 -27.11908884 45.87356927 -31.1875 46.9375 C-32.23357422 47.22753906 -33.27964844 47.51757812 -34.35742188 47.81640625 C-39.96650045 49.36057747 -45.60019329 50.80054384 -51.25 52.1875 C-49.4718887 52.71275322 -47.69371731 53.23780368 -45.9152832 53.76196289 C-44.37700877 54.21568908 -42.83908987 54.67062223 -41.30151367 55.12670898 C-37.61605058 56.2159164 -33.92996624 57.28570661 -30.21484375 58.26953125 C-29.00957031 58.59308594 -27.80429687 58.91664063 -26.5625 59.25 C-25.48613281 59.52972656 -24.40976562 59.80945313 -23.30078125 60.09765625 C-17.26487869 62.25388777 -13.56586579 65.26833413 -10.39306641 70.74804688 C-8.11318425 75.6136134 -6.80366374 80.75633154 -5.4375 85.9375 C-4.97053711 87.62166016 -4.97053711 87.62166016 -4.49414062 89.33984375 C-2.25 97.59630838 -2.25 97.59630838 -2.25 102.1875 C-1.59 102.1875 -0.93 102.1875 -0.25 102.1875 C-0.16363281 101.60226562 -0.07726562 101.01703125 0.01171875 100.4140625 C1.03871707 94.13900852 2.48086999 88.01216745 4.125 81.875 C4.32182373 81.11074707 4.51864746 80.34649414 4.72143555 79.55908203 C6.88384093 71.6946963 10.82195098 65.64474058 17.75 61.1875 C21.17454514 59.74562266 24.65282996 58.78828433 28.25 57.875 C29.16136719 57.62427734 30.07273437 57.37355469 31.01171875 57.11523438 C35.90914578 55.79723994 40.71295054 54.77561704 45.75 54.1875 C46.78941196 60.52021361 47.37161331 66.34415891 43.5703125 71.7421875 C41.07643782 74.81628572 38.34191814 77.64199686 35.52929688 80.42431641 C33.75710846 82.18045592 32.04023933 83.97838251 30.328125 85.79296875 C27.46287844 88.80141644 24.49440041 91.67444361 21.46630859 94.51806641 C19.81726884 96.12206837 18.2989424 97.79451204 16.76953125 99.51171875 C10.13876033 106.37666784 4.30158079 107.82807584 -5.23413086 108.12548828 C-24.74092063 108.12307899 -24.74092063 108.12307899 -32.7265625 100.96875 C-33.43554688 100.2159375 -34.14453125 99.463125 -34.875 98.6875 C-37.15255682 96.32145702 -39.29025878 94.1558681 -41.875 92.125 C-48.94797666 86.3549401 -57.19403426 77.29943148 -61.25 69.1875 C-61.46474919 64.67848877 -61.43578937 60.16518477 -61.43530273 55.65161133 C-61.4374548 53.42183328 -61.45550981 51.19257875 -61.47460938 48.96289062 C-61.5685561 26.42055508 -61.5685561 26.42055508 -57.69946289 21.02539062 C-56.0625 19.375 -56.0625 19.375 -54.18359375 17.8046875 C-51.44878298 15.51739122 -49.3026683 12.81154912 -47.0234375 10.08203125 C-42.63466643 5.39358638 -38.93659737 3.48732281 -32.625 2.5 C-31.97660156 2.38333984 -31.32820313 2.26667969 -30.66015625 2.14648438 C-20.48415727 0.39779329 -10.30831695 0.00595168 0 0 Z " fill="#F75F36" transform="translate(397.25,700.8125)"/>
<path d="M0 0 C6.14411991 4.72346184 11.73851609 9.8419011 15 17 C15 17.66 15 18.32 15 19 C14.39849121 19.18030762 13.79698242 19.36061523 13.17724609 19.54638672 C8.71365949 20.8848594 4.25066321 22.22523379 -0.2109375 23.5703125 C-1.93229167 24.08854167 -3.65364583 24.60677083 -5.375 25.125 C-6.68791016 25.52138672 -6.68791016 25.52138672 -8.02734375 25.92578125 C-8.87167969 26.17972656 -9.71601562 26.43367187 -10.5859375 26.6953125 C-11.3392334 26.92234863 -12.0925293 27.14938477 -12.86865234 27.38330078 C-13.57199707 27.58681152 -14.2753418 27.79032227 -15 28 C-15.69432129 28.23831543 -16.38864258 28.47663086 -17.10400391 28.72216797 C-17.72968262 28.81385254 -18.35536133 28.90553711 -19 29 C-20.45795677 27.80712628 -21.91056412 26.6058937 -23.3125 25.34765625 C-28.32312375 21.34611645 -34.26849785 20.436203 -40.5390625 20.6484375 C-45.85308631 21.40758376 -49.66352 23.62834947 -53.375 27.4375 C-56.84214603 32.90492258 -57.85808474 37.57509054 -57 44 C-55.13732282 49.91611673 -52.01591212 53.47818936 -47 57 C-40.57450576 59.14183141 -32.5760243 59.22201578 -26.4375 56.1875 C-24.3234367 54.96379946 -22.82993765 53.83542354 -21.0625 52.125 C-18.48792671 50.7206873 -17.77077341 51.09369734 -14.9765625 51.7734375 C-14.1719458 51.96663574 -13.3673291 52.15983398 -12.53833008 52.35888672 C-11.70068115 52.5704541 -10.86303223 52.78202148 -10 53 C-9.20166748 53.19996582 -8.40333496 53.39993164 -7.58081055 53.60595703 C-5.1544181 54.22419325 -2.73308494 54.8594282 -0.3125 55.5 C0.50283203 55.71269531 1.31816406 55.92539062 2.15820312 56.14453125 C6.49560523 57.28761378 10.761763 58.52106754 15 60 C13.80483583 67.76856712 7.2298248 73.29898277 1.4375 78 C-10.60473687 86.78268403 -24.45659383 88.35516619 -38.9375 88.3125 C-40.02740234 88.32861328 -41.11730469 88.34472656 -42.24023438 88.36132812 C-56.91520131 88.37004765 -71.35447715 84.22666596 -82.25390625 73.984375 C-93.51031023 61.1918622 -94.7671643 46.74449582 -94.17480469 30.43701172 C-93.81487612 25.41912489 -92.39252405 21.38037787 -90 17 C-89.51402344 16.07058594 -89.02804687 15.14117188 -88.52734375 14.18359375 C-81.93225155 2.72403638 -72.61131502 -3.436233 -60 -7 C-40.69665093 -11.39832818 -17.03991789 -11.35994526 0 0 Z " fill="#FEFDFD" transform="translate(1605,729)"/>
<path d="M0 0 C15.51 0 31.02 0 47 0 C40.21207178 9.05057096 40.21207178 9.05057096 36.25 12.9375 C35.49203125 13.68902344 34.7340625 14.44054687 33.953125 15.21484375 C32 17 32 17 30 18 C40.23 18.33 50.46 18.66 61 19 C61 28.9 61 38.8 61 49 C44.125 49 44.125 49 38.0625 48.5 C36.31646484 48.36078125 36.31646484 48.36078125 34.53515625 48.21875 C33.69855469 48.1465625 32.86195312 48.074375 32 48 C32.05226572 52.00103093 32.14743506 55.99996733 32.25 60 C32.26417969 61.12535156 32.27835938 62.25070312 32.29296875 63.41015625 C32.49629694 70.3639803 33.27456498 75.07984342 37 81 C41.11103642 84.8618827 45.21107975 85.18294612 50.6875 85.5625 C52.770625 85.706875 54.85375 85.85125 57 86 C57 94.58 57 103.16 57 112 C41.02514618 115.19497076 21.57328308 117.3153647 6.8515625 108.75 C-0.31286328 103.42958254 -3.39829399 94.48176005 -5 86 C-5.24191163 83.03582712 -5.23526201 80.09739957 -5.1953125 77.125 C-5.1924826 76.31506592 -5.18965271 75.50513184 -5.18673706 74.6706543 C-5.17564715 72.11361166 -5.15056452 69.55693465 -5.125 67 C-5.1149557 65.25391135 -5.1058324 63.50781715 -5.09765625 61.76171875 C-5.07745608 57.50756234 -5.03828766 53.25418473 -5 49 C-10.61 49 -16.22 49 -22 49 C-22 39.1 -22 29.2 -22 19 C-16.555 17.515 -16.555 17.515 -11 16 C-4.67976156 11.55608234 -1.89566249 7.58264996 0 0 Z " fill="#FEFEFD" transform="translate(1332,703)"/>
<path d="M0 0 C11.22 0 22.44 0 34 0 C35.65 7.26 37.3 14.52 39 22 C40.2684375 19.7415625 40.2684375 19.7415625 41.5625 17.4375 C46.96642614 8.49001573 53.08864574 3.30378475 63 0 C64.62719482 -0.08143855 66.25751719 -0.1075302 67.88671875 -0.09765625 C68.82451172 -0.09443359 69.76230469 -0.09121094 70.72851562 -0.08789062 C72.19321289 -0.07532227 72.19321289 -0.07532227 73.6875 -0.0625 C74.67556641 -0.05798828 75.66363281 -0.05347656 76.68164062 -0.04882812 C79.12115474 -0.03704303 81.56054689 -0.02059011 84 0 C83.58718984 8.46972574 82.6986307 16.79708509 81.5 25.1875 C81.36940186 26.10813232 81.23880371 27.02876465 81.10424805 27.97729492 C80.59411701 31.45516739 80.11431935 34.65704195 79 38 C69 36 69 36 66.54296875 35.44921875 C63.66477456 34.94078199 60.92224748 34.79472828 58 34.75 C56.989375 34.72421875 55.97875 34.6984375 54.9375 34.671875 C51.58653411 35.04618502 49.78379802 36.16346658 47 38 C46.34 38 45.68 38 45 38 C44.31653318 39.65984798 43.65411685 41.32836805 43 43 C42.65533691 43.83869629 42.31067383 44.67739258 41.95556641 45.54150391 C40.68680432 50.13355391 40.64476549 54.46710392 40.5859375 59.2109375 C40.56657135 60.17907379 40.5472052 61.14721008 40.5272522 62.14468384 C40.4677167 65.2213677 40.4211753 68.29808951 40.375 71.375 C40.33679627 73.46746377 40.29774315 75.55991222 40.2578125 77.65234375 C40.1604459 82.76814713 40.08067042 87.88379734 40 93 C26.8 93 13.6 93 0 93 C0 62.31 0 31.62 0 0 Z " fill="#FEFDFD" transform="translate(1113,722)"/>
<path d="M0 0 C13.33450264 4.03544159 25.08883048 13.68318337 31.94140625 25.73828125 C35.27585548 32.86243662 35.13822341 41.68801817 32.625 49.0625 C27.70795411 59.77340766 18.11088831 67.41661389 8 73 C7.34 73 6.68 73 6 73 C5.53851563 71.76507812 5.07703125 70.53015625 4.6015625 69.2578125 C0.51603209 58.56808486 -4.14032876 48.61173181 -9.8984375 38.72265625 C-10.26606201 38.07119629 -10.63368652 37.41973633 -11.01245117 36.74853516 C-11.82542878 35.30909247 -12.6650405 33.88472536 -13.51171875 32.46484375 C-14.28587222 28.55691701 -12.30622602 25.80737054 -10.4375 22.5 C-9.67995686 21.08466372 -8.92740566 19.66664504 -8.1796875 18.24609375 C-7.80682617 17.5382373 -7.43396484 16.83038086 -7.04980469 16.10107422 C-4.99590421 11.99040736 -3.47309145 7.69684587 -1.91015625 3.37890625 C-1 1 -1 1 0 0 Z " fill="#F75E35" transform="translate(476,717)"/>
<path d="M0 0 C0.6919043 0.41137207 1.38380859 0.82274414 2.09667969 1.24658203 C3.06105957 1.79209717 3.06105957 1.79209717 4.04492188 2.34863281 C5.98658021 3.4474507 7.91628698 4.56561518 9.84667969 5.68408203 C16.41749686 9.4451324 23.00172838 12.57253788 30.09667969 15.24658203 C28.67382288 22.70830786 21.87617442 29.60718294 16.09667969 34.24658203 C8.11120052 38.95752782 1.39972796 41.12186883 -7.90332031 40.24658203 C-20.23882017 36.92240512 -28.85801002 26.89445057 -35.62988281 16.62939453 C-36.90332031 14.24658203 -36.90332031 14.24658203 -36.90332031 11.24658203 C-36.35506592 11.03565918 -35.80681152 10.82473633 -35.24194336 10.60742188 C-32.68848002 9.61990054 -30.13925407 8.62201143 -27.59082031 7.62158203 C-26.67397461 7.26418945 -25.75712891 6.90679688 -24.8125 6.53857422 C-18.86907681 4.17425816 -13.61435711 1.5999392 -8.38769531 -2.11279297 C-4.85354311 -3.02411523 -3.10014986 -1.73686584 0 0 Z " fill="#F75E36" transform="translate(391.9033203125,825.75341796875)"/>
<path d="M0 0 C3.50059482 11.158146 3.13404375 22.39774398 -2 33 C-5.92832724 39.12656217 -11.22968782 43.33082447 -18 46 C-29.47308847 48.48109489 -40.82551444 47.16579018 -52 44 C-51.77860352 43.45698242 -51.55720703 42.91396484 -51.32910156 42.35449219 C-50.67093077 40.73611802 -50.01548362 39.11663478 -49.36206055 37.49633789 C-48.61689785 35.65608868 -47.86305119 33.81933344 -47.10083008 31.98608398 C-45.055666 26.99067888 -43.6437059 22.3918434 -42.6875 17.0625 C-41.796875 14.2734375 -41.796875 14.2734375 -40 12 C-35.72443236 9.85734096 -31.00009035 9.0778357 -26.34375 8.15625 C-20.80876927 7.05577519 -15.68963939 5.22356943 -10.4375 3.1875 C-2.19109747 0 -2.19109747 0 0 0 Z " fill="#F75F36" transform="translate(480,796)"/>
<path d="M0 0 C1.49273437 -0.04350586 1.49273437 -0.04350586 3.015625 -0.08789062 C11.53975506 -0.16022332 18.0736613 1.80218199 25.1875 6.5 C32.70754316 14.36981261 34.05438373 22.20127599 34.0625 32.6875 C34.07474609 33.5125 34.08699219 34.3375 34.09960938 35.1875 C34.11176051 40.29097494 33.52336454 44.47816604 31.875 49.3125 C25.35988883 48.03274602 19.1211117 46.20680293 12.8125 44.1652832 C12.16152344 43.95605225 11.51054687 43.74682129 10.83984375 43.53125 C10.19112305 43.31291504 9.54240234 43.09458008 8.87402344 42.86962891 C6.87554083 42.24925738 6.87554083 42.24925738 4.74316406 42.11083984 C2.404057 41.84027554 0.89832302 41.53440421 -1.125 40.3125 C-3.20119841 36.73162096 -4.17894823 32.9162436 -5.25 28.9375 C-5.90193198 26.74662619 -6.56072855 24.55778269 -7.2265625 22.37109375 C-7.70077637 20.79690674 -7.70077637 20.79690674 -8.18457031 19.19091797 C-9.67544805 14.62771742 -11.742251 10.57063585 -14.09375 6.38671875 C-15.125 4.3125 -15.125 4.3125 -15.125 1.3125 C-10.14017459 -0.12423457 -5.15194025 0.04891083 0 0 Z " fill="#F75E35" transform="translate(442.125,661.6875)"/>
<path d="M0 0 C2.45104789 1.21008913 4.87407881 2.46036891 7.29296875 3.734375 C8.59046342 4.40756691 9.88868303 5.07936282 11.1875 5.75 C12.22741089 6.29539429 12.22741089 6.29539429 13.28833008 6.85180664 C17.02958288 8.74819578 20.57815859 10.25160425 24.65625 11.26171875 C35.68893424 14.04430361 35.68893424 14.04430361 38.14501953 17.70800781 C39.96578257 21.92091604 40.75857503 26.32090259 41.54638672 30.82128906 C42.25224881 34.21155456 43.50240913 37.23188256 44.8125 40.4375 C47 45.81538462 47 45.81538462 47 48 C35.0353813 50.68544548 23.16048152 51.99516003 12 46 C4.91903196 41.27935464 1.32465949 36.13630822 -1 28 C-1.19207031 27.401875 -1.38414062 26.80375 -1.58203125 26.1875 C-2.21242506 22.88824266 -2.19059281 19.59642046 -2.1875 16.25 C-2.18814453 15.53714844 -2.18878906 14.82429687 -2.18945312 14.08984375 C-2.13882433 9.05457986 -1.58649873 4.7594962 0 0 Z " fill="#F75F37" transform="translate(302,788)"/>
<path d="M0 0 C0.81082031 -0.00386719 1.62164062 -0.00773438 2.45703125 -0.01171875 C3.23691406 -0.01042969 4.01679688 -0.00914062 4.8203125 -0.0078125 C5.52687988 -0.00668457 6.23344727 -0.00555664 6.96142578 -0.00439453 C8.875 0.125 8.875 0.125 11.875 1.125 C10.23038955 6.23194824 8.44733188 11.21254579 6.4375 16.1875 C4.94869585 19.90731449 3.74043142 23.4841207 2.98046875 27.41015625 C2.76185181 28.4918811 2.76185181 28.4918811 2.53881836 29.59545898 C2.26877659 31.00142868 2.03222726 32.41436501 1.83422852 33.83227539 C1.453125 35.7890625 1.453125 35.7890625 -0.125 39.125 C-2.24926804 40.26962709 -4.27643548 40.8531668 -6.61132812 41.45751953 C-9.16679647 42.13609864 -11.42817186 43.04609956 -13.8359375 44.1328125 C-14.60550781 44.47957031 -15.37507813 44.82632813 -16.16796875 45.18359375 C-17.32232422 45.71146484 -17.32232422 45.71146484 -18.5 46.25 C-20.06976812 46.96213871 -21.64005909 47.67312631 -23.2109375 48.3828125 C-23.8920459 48.6936377 -24.5731543 49.00446289 -25.27490234 49.32470703 C-27.125 50.125 -27.125 50.125 -30.125 51.125 C-32.25993153 44.99457413 -32.52475785 39.27479411 -32.5625 32.8125 C-32.59537109 31.83087891 -32.62824219 30.84925781 -32.66210938 29.83789062 C-32.7245203 21.26489863 -30.25393925 14.93046665 -24.8125 8.3125 C-16.6023857 1.62984883 -10.45729481 -0.05035615 0 0 Z " fill="#F75E35" transform="translate(338.125,666.875)"/>
<path d="M0 0 C8.54211969 4.5325533 14.64829206 10.58286752 20.1875 18.4375 C16.88319516 20.64036989 13.45209746 22.09042547 9.8125 23.625 C3.26627334 26.42392197 -2.9409555 29.5457375 -9.140625 33.0546875 C-11.5123312 34.28214948 -13.20253378 35.03390016 -15.8125 35.4375 C-18.58060953 34.30269239 -21.15942558 33.10949921 -23.8125 31.75 C-30.69402726 28.35324915 -37.43381507 25.59850214 -44.8125 23.4375 C-36.57554734 6.96359468 -19.30289513 -7.99447338 0 0 Z " fill="#F75F36" transform="translate(400.8125,642.5625)"/>
<path d="M0 0 C4.41421882 2.87577809 7.72065329 7.27285268 9.71484375 12.1171875 C10.51917459 18.35336294 9.85540274 23.59413548 6.71484375 29.1171875 C2.88600078 34.07216076 -1.27369886 35.96962588 -7.28515625 37.1171875 C-14.04365416 37.79551899 -20.62774844 38.06944284 -26.6328125 34.52734375 C-30.81384837 30.95913111 -33.86419632 25.61598564 -34.5234375 20.13671875 C-34.74432616 13.56818744 -33.40308311 8.48284005 -28.859375 3.578125 C-21.10763576 -3.27224921 -9.39643506 -4.17177878 0 0 Z " fill="#F76037" transform="translate(827.28515625,750.8828125)"/>
<path d="M0 0 C2.66416036 2.66416036 2.94085758 5.50944078 3.75 9.0625 C5.65641886 16.73670578 8.2100634 22.97153839 14.546875 28.03515625 C18.99150914 30.56417319 23.47023906 31.87862604 28.375 33.25 C29.30183594 33.518125 30.22867188 33.78625 31.18359375 34.0625 C33.45323768 34.71765495 35.72515917 35.36317219 38 36 C35.07051498 37.95299002 32.84693866 38.57050348 29.45239258 39.29223633 C19.51617218 41.41778262 13.1700749 44.35218726 7.17504883 52.92895508 C5.04082402 56.6905651 4.15813714 60.75262185 3.1875 64.9375 C2.86362305 66.24944336 2.86362305 66.24944336 2.53320312 67.58789062 C2.00834212 69.7223254 1.49769773 71.85909962 1 74 C0.01 73.505 0.01 73.505 -1 73 C-2.10748803 69.3121402 -3.05710159 65.61651092 -3.96875 61.87695312 C-5.28122094 56.79735832 -6.93420064 53.24645826 -10 49 C-10 48.34 -10 47.68 -10 47 C-10.59296875 46.70867188 -11.1859375 46.41734375 -11.796875 46.1171875 C-13.64607762 45.17947128 -15.45407703 44.16110941 -17.25 43.125 C-23.69801114 39.85177297 -30.99489185 38.59825283 -38 37 C-35.32817693 34.32817693 -32.43602109 33.97278024 -28.875 33.125 C-20.71824409 31.04009797 -13.71648456 29.03941694 -8.30859375 22.25390625 C-6.09840526 18.44710398 -5.04307062 14.33642144 -3.87890625 10.11328125 C-2.87397468 6.5535903 -1.55669185 3.34688747 0 0 Z " fill="#F76038" transform="translate(396,717)"/>
<path d="M0 0 C4.67687319 4.12468423 7.25519455 8.66090425 10.0625 14.1875 C10.50005615 15.03594482 10.9376123 15.88438965 11.38842773 16.75854492 C19.15609987 31.98294873 19.15609987 31.98294873 20 40 C13.98284676 43.18431124 7.96087949 45.56013724 1.5 47.6875 C0.15228516 48.14866211 0.15228516 48.14866211 -1.22265625 48.61914062 C-6.51362617 50.37894649 -11.44326567 51.5131366 -17 52 C-16.93651367 51.33427979 -16.87302734 50.66855957 -16.80761719 49.98266602 C-16.35754977 45.16466902 -15.95842914 40.35976151 -15.703125 35.52734375 C-14.62613842 20.50663448 -9.97082021 11.20309716 0 0 Z " fill="#F75F36" transform="translate(459,752)"/>
<path d="M0 0 C4.57423748 2.67226763 6.84388686 6.40666059 8.5 11.375 C9.23979936 18.2029843 8.60473465 23.74350429 4.5 29.375 C-0.14622308 34.13974918 -3.58899797 35.5676822 -10.1875 35.75 C-15.45341472 35.69610118 -19.19358278 35.5848197 -23.16796875 31.97265625 C-27.99472973 26.18337402 -29.23065123 20.81419237 -28.9453125 13.28125 C-28.00567937 7.14890748 -25.14659289 3.71915746 -20.4375 -0.125 C-14.20603091 -3.17270541 -6.24980211 -2.7802858 0 0 Z " fill="#F75F37" transform="translate(943.5,752.625)"/>
<path d="M0 0 C0.38671875 0.97839844 0.7734375 1.95679688 1.171875 2.96484375 C1.69782095 4.28910052 2.22386811 5.61331709 2.75 6.9375 C3.00265625 7.57751953 3.2553125 8.21753906 3.515625 8.87695312 C3.7734375 9.52470703 4.03125 10.17246094 4.296875 10.83984375 C4.55871582 11.5145874 4.82055664 12.18933105 5.09033203 12.88452148 C5.97840119 15.05473637 5.97840119 15.05473637 7.24951172 17.21118164 C10.29147098 22.80787827 10.29147098 22.80787827 9.4765625 26.14086914 C8.3365011 28.40815577 7.04591772 30.46006891 5.625 32.5625 C4.6628519 34.11815331 3.7098457 35.67949442 2.765625 37.24609375 C2.0550293 38.42147705 2.0550293 38.42147705 1.33007812 39.62060547 C-0.73169591 43.30894059 -2.21140124 47.15099687 -3.625 51.125 C-3.87169434 51.81795166 -4.11838867 52.51090332 -4.37255859 53.22485352 C-4.92713202 54.81239614 -5.46561928 56.40554695 -6 58 C-14.29410506 51.5217641 -20.75646471 44.12694278 -22.38671875 33.47265625 C-22.97262795 24.39757368 -19.10387143 16.80832398 -13.6875 9.6875 C-4 0 -4 0 0 0 Z " fill="#F75F36" transform="translate(307,724)"/>
<path d="M0 0 C3.19961697 1.77249657 4.34468874 4.93907959 5.85546875 8.125 C6.37270508 9.18690552 6.37270508 9.18690552 6.90039062 10.27026367 C10.53347008 17.96848741 14.91796875 27.44014399 14.91796875 36.0625 C14.32371094 36.00191406 13.72945313 35.94132813 13.1171875 35.87890625 C12.28832031 35.79511719 11.45945312 35.71132813 10.60546875 35.625 C9.69152344 35.52445313 8.77757812 35.42390625 7.8359375 35.3203125 C4.94768728 35.02337087 4.94768728 35.02337087 2.15625 35.0546875 C-4.77081118 34.91634391 -8.12444412 33.03904613 -13.24609375 28.47265625 C-16.71670032 25.52311871 -20.40139298 23.05509484 -24.20703125 20.5625 C-25.22168457 19.89456421 -25.22168457 19.89456421 -26.25683594 19.21313477 C-27.86262967 18.15894483 -29.47194834 17.11012728 -31.08203125 16.0625 C-30.08203125 13.0625 -30.08203125 13.0625 -26.90625 11.1953125 C-25.53310861 10.51429223 -24.15374986 9.84571329 -22.76953125 9.1875 C-22.05055664 8.83888916 -21.33158203 8.49027832 -20.59082031 8.13110352 C-18.42831667 7.0923243 -16.25770341 6.0733725 -14.08203125 5.0625 C-12.89738281 4.51207031 -11.71273438 3.96164062 -10.4921875 3.39453125 C-3.00417983 0.09018176 -3.00417983 0.09018176 0 0 Z " fill="#F76038" transform="translate(422.08203125,664.9375)"/>
<path d="M0 0 C3.62044679 3.42491743 6.42674533 6.87755991 9.125 11.0625 C11.69019317 15.08116041 11.69019317 15.08116041 14.55737305 18.87915039 C16.19204704 21.28233417 16.56541674 22.90940288 16.94921875 25.7734375 C17.07490234 26.6809375 17.20058594 27.5884375 17.33007812 28.5234375 C17.44802734 29.46445312 17.56597656 30.40546875 17.6875 31.375 C17.88182617 32.77492188 17.88182617 32.77492188 18.08007812 34.203125 C18.6996676 38.83201567 19.16439483 43.31866158 19 48 C12.08899645 46.59437216 5.95812013 44.21522845 -0.3125 41.0625 C-1.31603516 40.55879883 -1.31603516 40.55879883 -2.33984375 40.04492188 C-6.42373418 37.94196236 -10.22468243 35.61638287 -14 33 C-13.45487253 27.54164572 -12.07364629 23.16745583 -9.8125 18.1875 C-9.50368896 17.49333984 -9.19487793 16.79917969 -8.87670898 16.08398438 C-6.3265292 10.46589463 -3.38704605 5.16121302 0 0 Z " fill="#F76038" transform="translate(318,752)"/>
<path d="M0 0 C-1.3081645 6.68917104 -3.24003451 12.7211417 -5.875 19 C-6.21402344 19.85722656 -6.55304688 20.71445312 -6.90234375 21.59765625 C-7.24136719 22.41105469 -7.58039063 23.22445312 -7.9296875 24.0625 C-8.23116699 24.79597656 -8.53264648 25.52945313 -8.84326172 26.28515625 C-10 28 -10 28 -11.91918945 28.81591797 C-15.37895205 29.12199106 -18.23509793 27.53387313 -21.3125 26.125 C-22.00730469 25.8148999 -22.70210938 25.5047998 -23.41796875 25.18530273 C-30.96489341 21.71920049 -37.99413811 17.43905904 -45 13 C-43.54751283 8.6425385 -40.89046132 7.10477256 -37.15527344 4.57763672 C-31.30099103 1.65049552 -25.06196118 1.46879142 -18.625 1.0625 C-17.25888951 0.95263343 -15.89299713 0.840019 -14.52734375 0.72460938 C-9.67251746 0.3357402 -4.87135276 0 0 0 Z " fill="#F76037" transform="translate(436,809)"/>
<path d="M0 0 C5.80840257 0.634693 10.87461431 2.71400201 16.25 4.875 C17.61511719 5.40287109 17.61511719 5.40287109 19.0078125 5.94140625 C19.87664062 6.28816406 20.74546875 6.63492188 21.640625 6.9921875 C22.82446777 7.46180908 22.82446777 7.46180908 24.03222656 7.94091797 C26 9 26 9 28 12 C27.21238281 12.59425781 26.42476563 13.18851563 25.61328125 13.80078125 C24.51249581 14.63733042 23.41228107 15.47463085 22.3125 16.3125 C21.72960205 16.75529297 21.1467041 17.19808594 20.54614258 17.65429688 C17.45218103 20.02883868 14.44015346 22.45282526 11.5234375 25.04296875 C10.96358154 25.53692139 10.40372559 26.03087402 9.8269043 26.53979492 C8.76283478 27.48755363 7.70886102 28.44681683 6.66723633 29.41918945 C1.16850542 34.30008543 -4.74007837 35.36299608 -12 35 C-9.84798123 22.45599584 -6.05688286 11.20523328 0 0 Z " fill="#F76038" transform="translate(354,669)"/>
<path d="M0 0 C5.94531605 0.66509675 11.46670983 2.15161722 17.1875 3.875 C18.07630859 4.13152344 18.96511719 4.38804687 19.88085938 4.65234375 C20.73873047 4.90886719 21.59660156 5.16539062 22.48046875 5.4296875 C23.25285889 5.65897949 24.02524902 5.88827148 24.82104492 6.12451172 C27.22835039 7.09174952 28.99726625 8.36535932 31 10 C29.78422968 13.17196879 28.54993673 16.33642746 27.3125 19.5 C26.97283203 20.386875 26.63316406 21.27375 26.28320312 22.1875 C24.04660199 27.8730655 21.44462454 32.95133547 18 38 C17.28070313 37.278125 16.56140625 36.55625 15.8203125 35.8125 C14.05452266 34.05160154 12.26124786 32.31738405 10.4296875 30.625 C1.70817085 21.6634416 0.81721522 12.16590685 0 0 Z " fill="#F75F37" transform="translate(442,706)"/>
<path d="M0 0 C1.13050781 0.14566406 2.26101563 0.29132812 3.42578125 0.44140625 C6.44111344 0.82387419 9.45311256 1.13346456 12.48046875 1.40234375 C24.26722824 2.64586113 31.43694722 5.8059118 40 14 C36.78806249 17.68118782 33.20427944 19.60372256 28.8125 21.5625 C28.14702148 21.86551025 27.48154297 22.16852051 26.79589844 22.48071289 C14.493639 28 14.493639 28 9 28 C0 6.15533981 0 6.15533981 0 0 Z " fill="#F75F36" transform="translate(343,806)"/>
<path d="M0 0 C-0.08133644 11.87512007 -5.32155712 18.58938054 -12.66748047 27.37939453 C-13.7514563 28.69772205 -14.764382 30.07422058 -15.75390625 31.46484375 C-16.37072266 32.22474609 -16.37072266 32.22474609 -17 33 C-17.66 33 -18.32 33 -19 33 C-20.15782465 30.65109726 -21.30121171 28.29679918 -22.4375 25.9375 C-22.92573242 24.95233398 -22.92573242 24.95233398 -23.42382812 23.94726562 C-25.5122926 19.57656162 -26.55424135 15.82800564 -27 11 C-24.50252977 9.72398669 -22.00222064 8.45413829 -19.5 7.1875 C-18.80390625 6.83107422 -18.1078125 6.47464844 -17.390625 6.10742188 C-5.28784404 0 -5.28784404 0 0 0 Z " fill="#F76139" transform="translate(337,710)"/>
<path d="M0 0 C0.33 0 0.66 0 1 0 C0.45089248 9.82713114 -1.18142226 19.3466691 -3 29 C-12.81615181 31.52591354 -21.84856616 32.15459036 -32 32 C-27.37056596 27.29961678 -22.54601254 22.82634289 -17.703125 18.34765625 C-9.5492532 10.8053547 -9.5492532 10.8053547 -2.125 2.5625 C-1.42375 1.716875 -0.7225 0.87125 0 0 Z " fill="#F76139" transform="translate(441,776)"/>
<path d="M0 0 C2.64984393 1.35974848 5.06020458 2.98447449 7.5 4.6875 C8.47646484 5.34008789 8.47646484 5.34008789 9.47265625 6.00585938 C13.40677738 8.68821469 16.74479358 11.52569314 20 15 C19.16976318 15.02505615 18.33952637 15.0501123 17.48413086 15.07592773 C-3.77633096 15.67198488 -3.77633096 15.67198488 -25 17 C-21.30700625 12.21331195 -17.37569291 8.67798018 -12.5 5.125 C-11.84902344 4.62742187 -11.19804687 4.12984375 -10.52734375 3.6171875 C-4.20543977 -1.03164694 -4.20543977 -1.03164694 0 0 Z " fill="#F76038" transform="translate(389,683)"/>
<path d="M0 0 C4.27295432 2.54213738 6.85816689 5.57450066 8.4375 10.3125 C-4.7625 10.3125 -17.9625 10.3125 -31.5625 10.3125 C-29.5813287 5.35957175 -29.27837943 4.65409965 -25.125 2.0625 C-24.34253906 1.56234375 -23.56007813 1.0621875 -22.75390625 0.546875 C-16.22473127 -3.13087775 -6.76674866 -3.16632768 0 0 Z " fill="#F76038" transform="translate(1463.5625,747.6875)"/>
<path d="M0 0 C4.27295432 2.54213738 6.85816689 5.57450066 8.4375 10.3125 C-4.7625 10.3125 -17.9625 10.3125 -31.5625 10.3125 C-29.5813287 5.35957175 -29.27837943 4.65409965 -25.125 2.0625 C-24.34253906 1.56234375 -23.56007813 1.0621875 -22.75390625 0.546875 C-16.22473127 -3.13087775 -6.76674866 -3.16632768 0 0 Z " fill="#F76038" transform="translate(1063.5625,747.6875)"/>
<path d="M0 0 C8.66666667 8.66666667 17.33333333 17.33333333 26 26 C21.57062241 27.4764592 17.93106473 26.24575328 13.4375 25.3125 C12.56158203 25.15072266 11.68566406 24.98894531 10.78320312 24.82226562 C9.94595703 24.65017578 9.10871094 24.47808594 8.24609375 24.30078125 C7.47966553 24.14778564 6.7132373 23.99479004 5.92358398 23.8371582 C4 23 4 23 2.77416992 21.10766602 C1.74545807 18.3070134 1.30833245 15.57578765 0.875 12.625 C0.70742188 11.52414062 0.53984375 10.42328125 0.3671875 9.2890625 C0.0177528 6.15901977 -0.06653344 3.14608144 0 0 Z " fill="#F7633C" transform="translate(338,779)"/>
<path d="M0 0 C0.33 0 0.66 0 1 0 C1 11.22 1 22.44 1 34 C-1.6589847 30.67626912 -4.22315193 27.39614035 -6.6875 23.9375 C-7.28949219 23.10089844 -7.89148438 22.26429688 -8.51171875 21.40234375 C-9.94098596 19.09525888 -10.6408501 17.66041625 -11 15 C-9.46082 12.439577 -7.92673601 10.17214622 -6.125 7.8125 C-5.65191406 7.17119141 -5.17882812 6.52988281 -4.69140625 5.86914062 C-1.31683673 1.31683673 -1.31683673 1.31683673 0 0 Z " fill="#F7653E" transform="translate(332,732)"/>
<path d="M0 0 C2.9747648 2.9747648 5.37495043 5.63361576 7.8125 9 C8.43769531 9.845625 9.06289063 10.69125 9.70703125 11.5625 C11 14 11 14 10.94921875 15.921875 C9.58401856 18.91070834 7.83994238 21.52951376 6 24.25 C5.278125 25.32765625 4.55625 26.4053125 3.8125 27.515625 C3.214375 28.33546875 2.61625 29.1553125 2 30 C1.67 30 1.34 30 1 30 C0.67 20.1 0.34 10.2 0 0 Z " fill="#F7623A" transform="translate(446,733)"/>
<path d="M0 0 C1.91697937 0.14166357 3.83357723 0.28849584 5.75 0.4375 C7.35101563 0.55931641 7.35101563 0.55931641 8.984375 0.68359375 C9.97953125 0.78800781 10.9746875 0.89242187 12 1 C13.12148438 1.11021484 13.12148438 1.11021484 14.265625 1.22265625 C16 2 16 2 17.2109375 4.19921875 C18.03255129 7.11554096 18.40671175 9.79284592 18.625 12.8125 C18.69976562 13.78832031 18.77453125 14.76414062 18.8515625 15.76953125 C18.92503906 16.87361328 18.92503906 16.87361328 19 18 C13.33737812 13.30122865 8.15585212 8.24577978 3 3 C2.00110558 1.99889564 1.00158353 0.99841396 0 0 Z " fill="#F7633B" transform="translate(422,703)"/>
<path d="M0 0 C6.27 0.33 12.54 0.66 19 1 C15 5 15 5 12 7 C7.16213091 6.86561475 3.56753321 4.04319836 0 1 C0 0.67 0 0.34 0 0 Z " fill="#F76740" transform="translate(377,811)"/>
<path d="M0 0 C-1.47582808 1.66962369 -2.95574891 3.3356306 -4.4375 5 C-5.26121094 5.928125 -6.08492188 6.85625 -6.93359375 7.8125 C-7.61550781 8.534375 -8.29742187 9.25625 -9 10 C-9.33 10 -9.66 10 -10 10 C-9.67 7.03 -9.34 4.06 -9 1 C-3.375 -1.125 -3.375 -1.125 0 0 Z " fill="#F76F4A" transform="translate(349,708)"/>
<path d="M0 0 C0.33 0 0.66 0 1 0 C1 3.63 1 7.26 1 11 C0.01 11.33 -0.98 11.66 -2 12 C-1.85831863 10.56208484 -1.71148957 9.1246763 -1.5625 7.6875 C-1.48128906 6.88699219 -1.40007813 6.08648438 -1.31640625 5.26171875 C-1 3 -1 3 0 0 Z " fill="#F98566" transform="translate(705,728)"/>
</svg>
